HIERARCHY
ROOT Hips
{
    OFFSET   0.000000   0.000000   0.000000
    CHANNELS 6 Xposition Yposition Zposition Zrotation Xrotation Yrotation
    JOINT Chest
    {
        OFFSET   0.000000   8.007230   0.000000
        CHANNELS 3 Zrotation Xrotation Yrotation
        JOINT Chest2
        {
            OFFSET   0.000000  22.077100   0.000000
            CHANNELS 3 Zrotation Xrotation Yrotation
            JOINT Neck
            {
                OFFSET   0.000000  23.254700   0.000000
                CHANNELS 3 Zrotation Xrotation Yrotation
                JOINT Head
                {
                    OFFSET   0.000010  14.370000   1.956610
                    CHANNELS 3 Zrotation Xrotation Yrotation
                    End Site
                    {
                        OFFSET   0.000000  19.566000   0.000000
                    }
                }
            }
            JOINT LeftCollar
            {
                OFFSET   3.911900  19.017000  -0.467063
                CHANNELS 3 Zrotation Xrotation Yrotation
                JOINT LeftShoulder
                {
                    OFFSET  10.383700   0.000000   0.000000
                    CHANNELS 3 Zrotation Xrotation Yrotation
                    JOINT LeftElbow
                    {
                        OFFSET  26.662100   0.001671   0.000522
                        CHANNELS 3 Zrotation Xrotation Yrotation
                        JOINT LeftWrist
                        {
                            OFFSET  28.869000   0.000037  -0.000114
                            CHANNELS 3 Zrotation Xrotation Yrotation
                            JOINT LeftFinger0
                            {
                                OFFSET   2.044650  -2.323450   3.252850
                                CHANNELS 3 Zrotation Xrotation Yrotation
                                JOINT LeftFinger01
                                {
                                    OFFSET   3.088140   0.000000   0.000000
                                    CHANNELS 3 Zrotation Xrotation Yrotation
                                    JOINT LeftFinger02
                                    {
                                        OFFSET   2.639460   0.000000   0.000000
                                        CHANNELS 3 Zrotation Xrotation Yrotation
                                        End Site
                                        {
                                            OFFSET   2.582190   0.000000   0.000000
                                        }
                                    }
                                }
                            }
                            JOINT LeftFinger1
                            {
                                OFFSET   8.364480   0.000000   3.252850
                                CHANNELS 3 Zrotation Xrotation Yrotation
                                JOINT LeftFinger11
                                {
                                    OFFSET   4.646930   0.000000   0.000000
                                    CHANNELS 3 Zrotation Xrotation Yrotation
                                    JOINT LeftFinger12
                                    {
                                        OFFSET   2.323470   0.000000   0.000000
                                        CHANNELS 3 Zrotation Xrotation Yrotation
                                        End Site
                                        {
                                            OFFSET   2.273050   0.000000   0.000000
                                        }
                                    }
                                }
                            }
                            JOINT LeftFinger2
                            {
                                OFFSET   8.364490   0.000016   1.078090
                                CHANNELS 3 Zrotation Xrotation Yrotation
                                JOINT LeftFinger21
                                {
                                    OFFSET   5.111620   0.000000   0.000000
                                    CHANNELS 3 Zrotation Xrotation Yrotation
                                    JOINT LeftFinger22
                                    {
                                        OFFSET   2.788150   0.000013   0.000000
                                        CHANNELS 3 Zrotation Xrotation Yrotation
                                        End Site
                                        {
                                            OFFSET   2.727660   0.000000   0.000000
                                        }
                                    }
                                }
                            }
                            JOINT LeftFinger3
                            {
                                OFFSET   7.899780   0.000016  -1.078090
                                CHANNELS 3 Zrotation Xrotation Yrotation
                                JOINT LeftFinger31
                                {
                                    OFFSET   4.646930   0.000000   0.000000
                                    CHANNELS 3 Zrotation Xrotation Yrotation
                                    JOINT LeftFinger32
                                    {
                                        OFFSET   2.323470   0.000000   0.000000
                                        CHANNELS 3 Zrotation Xrotation Yrotation
                                        End Site
                                        {
                                            OFFSET   2.273050   0.000000   0.000000
                                        }
                                    }
                                }
                            }
                            JOINT LeftFinger4
                            {
                                OFFSET   7.435080   0.000000  -3.252850
                                CHANNELS 3 Zrotation Xrotation Yrotation
                                JOINT LeftFinger41
                                {
                                    OFFSET   3.717550   0.000000   0.000000
                                    CHANNELS 3 Zrotation Xrotation Yrotation
                                    JOINT LeftFinger42
                                    {
                                        OFFSET   1.858760   0.000000   0.000000
                                        CHANNELS 3 Zrotation Xrotation Yrotation
                                        End Site
                                        {
                                            OFFSET   1.818440   0.000000   0.000000
                                        }
                                    }
                                }
                            }
                        }
                    }
                }
            }
            JOINT RightCollar
            {
                OFFSET  -3.911900  19.017000  -0.467064
                CHANNELS 3 Zrotation Xrotation Yrotation
                JOINT RightShoulder
                {
                    OFFSET -10.383700   0.000000   0.000000
                    CHANNELS 3 Zrotation Xrotation Yrotation
                    JOINT RightElbow
                    {
                        OFFSET -26.662100   0.001633   0.000260
                        CHANNELS 3 Zrotation Xrotation Yrotation
                        JOINT RightWrist
                        {
                            OFFSET -28.869000  -0.000045  -0.000080
                            CHANNELS 3 Zrotation Xrotation Yrotation
                            JOINT RightFinger0
                            {
                                OFFSET  -2.044660  -2.323490   3.252850
                                CHANNELS 3 Zrotation Xrotation Yrotation
                                JOINT RightFinger01
                                {
                                    OFFSET  -3.088140   0.000000   0.000000
                                    CHANNELS 3 Zrotation Xrotation Yrotation
                                    JOINT RightFinger02
                                    {
                                        OFFSET  -2.639450   0.000000   0.000000
                                        CHANNELS 3 Zrotation Xrotation Yrotation
                                        End Site
                                        {
                                            OFFSET  -2.582190   0.000000   0.000000
                                        }
                                    }
                                }
                            }
                            JOINT RightFinger1
                            {
                                OFFSET  -8.364480   0.000000   3.252850
                                CHANNELS 3 Zrotation Xrotation Yrotation
                                JOINT RightFinger11
                                {
                                    OFFSET  -4.646920   0.000000   0.000000
                                    CHANNELS 3 Zrotation Xrotation Yrotation
                                    JOINT RightFinger12
                                    {
                                        OFFSET  -2.323470   0.000000   0.000000
                                        CHANNELS 3 Zrotation Xrotation Yrotation
                                        End Site
                                        {
                                            OFFSET  -2.273050   0.000000   0.000000
                                        }
                                    }
                                }
                            }
                            JOINT RightFinger2
                            {
                                OFFSET  -8.364480   0.000000   1.078090
                                CHANNELS 3 Zrotation Xrotation Yrotation
                                JOINT RightFinger21
                                {
                                    OFFSET  -5.111610   0.000000   0.000000
                                    CHANNELS 3 Zrotation Xrotation Yrotation
                                    JOINT RightFinger22
                                    {
                                        OFFSET  -2.788160   0.000000   0.000000
                                        CHANNELS 3 Zrotation Xrotation Yrotation
                                        End Site
                                        {
                                            OFFSET  -2.727660   0.000000   0.000000
                                        }
                                    }
                                }
                            }
                            JOINT RightFinger3
                            {
                                OFFSET  -7.899780   0.000000  -1.078090
                                CHANNELS 3 Zrotation Xrotation Yrotation
                                JOINT RightFinger31
                                {
                                    OFFSET  -4.646930   0.000000   0.000000
                                    CHANNELS 3 Zrotation Xrotation Yrotation
                                    JOINT RightFinger32
                                    {
                                        OFFSET  -2.323470   0.000000   0.000000
                                        CHANNELS 3 Zrotation Xrotation Yrotation
                                        End Site
                                        {
                                            OFFSET  -2.273050   0.000000   0.000000
                                        }
                                    }
                                }
                            }
                            JOINT RightFinger4
                            {
                                OFFSET  -7.435090   0.000000  -3.252850
                                CHANNELS 3 Zrotation Xrotation Yrotation
                                JOINT RightFinger41
                                {
                                    OFFSET  -3.717550   0.000000   0.000000
                                    CHANNELS 3 Zrotation Xrotation Yrotation
                                    JOINT RightFinger42
                                    {
                                        OFFSET  -1.858760   0.000000   0.000000
                                        CHANNELS 3 Zrotation Xrotation Yrotation
                                        End Site
                                        {
                                            OFFSET  -1.818440   0.000000   0.000000
                                        }
                                    }
                                }
                            }
                        }
                    }
                }
            }
        }
    }
    JOINT LeftHip
    {
        OFFSET   9.782990   0.000000   0.000000
        CHANNELS 3 Zrotation Xrotation Yrotation
        JOINT LeftKnee
        {
            OFFSET  -0.000063 -41.789100   0.001657
            CHANNELS 3 Zrotation Xrotation Yrotation
            JOINT LeftAnkle
            {
                OFFSET   0.000078 -41.133200  -0.000113
                CHANNELS 3 Zrotation Xrotation Yrotation
                JOINT LeftToe
                {
                    OFFSET   0.000000  -6.358970  14.674500
                    CHANNELS 3 Zrotation Xrotation Yrotation
                    End Site
                    {
                        OFFSET   0.000000   0.000000   3.913200
                    }
                }
            }
        }
    }
    JOINT RightHip
    {
        OFFSET  -9.782990   0.000000   0.000000
        CHANNELS 3 Zrotation Xrotation Yrotation
        JOINT RightKnee
        {
            OFFSET   0.000053 -41.789200   0.000277
            CHANNELS 3 Zrotation Xrotation Yrotation
            JOINT RightAnkle
            {
                OFFSET   0.000030 -41.133200  -0.000150
                CHANNELS 3 Zrotation Xrotation Yrotation
                JOINT RightToe
                {
                    OFFSET   0.000000  -6.358960  14.674500
                    CHANNELS 3 Zrotation Xrotation Yrotation
                    End Site
                    {
                        OFFSET   0.000000   0.000000   3.913200
                    }
                }
            }
        }
    }
}
MOTION
Frames: 4
Frame Time:   0.016667
  0.417573  89.860200   0.597163  -0.838426  -3.078170  -0.566459  -0.703685   3.227290  -0.825240  -1.363920   6.464150  -1.614500   2.686810  -0.058353  -0.008022   4.414140  -0.117545   6.635130  -4.147440   0.041862   4.709120 -68.827500  19.379100   0.296839  -3.749240  -8.109260 -14.285800  12.632900 -11.380200  10.018800  51.142400  42.849700 -85.674100 -21.936000   0.002624   0.001109  -5.967980   0.000513  -0.001459 -31.939300   4.295030  -6.850950 -26.341400  -0.002601   0.001730 -18.439000  -0.002555  -0.002272 -27.546200   3.756510  -7.159370 -30.676700   0.000939  -0.009016 -20.430700  -0.000293  -0.002560 -27.851200   0.189853  -0.359300 -31.089300  -0.002099   0.000358 -20.692800  -0.009025  -0.000286 -28.329800  -2.497270   4.620640 -42.645800  -0.003968  -0.000388 -28.409500  -0.002127  -0.000310  11.735200   3.224020   6.473420  66.280700   9.904500  -2.826920   3.416300  -7.155960  10.334100 -13.735100 -18.618700  -3.023460 -37.642000  33.257200  72.927700  29.220000   0.003326  -0.001795   9.610040   0.003335   0.000826  26.101900   0.450096   0.918603  21.359000   0.003059   0.010387  14.951300   0.001018   0.001495  25.063000  -1.219810  -2.606390  25.090700  -0.002850   0.007228  16.710400   0.004817   0.002955  24.056700  -1.173820  -2.627410  24.083700  -0.004689   0.011856  16.039700   0.009224   0.002450  26.015500  -2.249200  -4.597280  39.158700   0.003764   0.008182  26.079700   0.005284   0.006184   1.536050   3.150060   1.466570   1.092250   1.930510  12.548500  -6.401970  -3.104100   1.981820   0.000000   0.000000  -0.000000   1.704900   3.040440  -7.695100  -0.543711   2.877980 -11.781700  -6.217170  -0.332649  -1.262520   0.000000   0.000000   0.000000
  0.408137  89.860200   0.612736  -0.847845  -3.100510  -0.651110  -0.696450   3.241450  -0.825315  -1.349230   6.492360  -1.614930   2.701190  -0.006118  -0.007754   4.437730  -0.012154   6.649950  -4.166070   0.059911   4.729970 -68.847300  19.400300   0.292713  -3.756490  -8.133010 -14.241100  12.640700 -11.370500  10.018800  51.152800  42.850800 -85.686400 -21.922700   0.002623   0.001117  -5.961370   0.000513  -0.001472 -31.938400   4.298500  -6.856760 -26.341400  -0.002599   0.001731 -18.439000  -0.002555  -0.002272 -27.532900   3.758020  -7.166210 -30.604300   0.000945  -0.009008 -20.382500  -0.000280  -0.002550 -27.850900   0.193383  -0.365987 -31.083500  -0.002096   0.000359 -20.692400  -0.009029  -0.000285 -28.327400  -2.493240   4.613670 -42.641800  -0.003970  -0.000390 -28.403700  -0.002127  -0.000311  11.731100   3.224360   6.469400  66.272900   9.934330  -2.811550   3.419840  -7.183230  10.323300 -13.721700 -18.599800  -3.060050 -37.648200  33.283100  72.943700  29.235700   0.003325  -0.001786   9.617890   0.003334   0.000824  26.114800   0.455036   0.928118  21.369600   0.003056   0.010386  14.958700   0.001019   0.001495  25.067900  -1.223260  -2.612510  25.095800  -0.002847   0.007226  16.713800   0.004814   0.002952  24.065900  -1.177380  -2.633500  24.092900  -0.004687   0.011854  16.045800   0.009225   0.002440  26.039400  -2.263430  -4.619310  39.196200   0.003760   0.008179  26.104700   0.005280   0.006183   1.548960   3.198900   1.479000   1.082830   1.927830  12.595500  -6.399860  -3.130780   2.003680  -0.000000   0.000000   0.000000   1.720190   3.085430  -7.714460  -0.551190   2.837460 -11.742000  -6.216670  -0.323181  -1.195230   0.000000   0.000000   0.000000
  0.392739  89.860100   0.639149  -0.862746  -3.135250  -0.787707  -0.683741   3.262060  -0.825443  -1.323480   6.533390  -1.615720   2.723230   0.085978  -0.007487   4.473830   0.173492   6.664800  -4.202960   0.099154   4.750820 -68.879400  19.435300   0.270740  -3.763240  -8.173960 -14.164900  12.654000 -11.345300  10.018200  51.169300  42.853300 -85.710600 -21.900500   0.002621   0.001125  -5.950260   0.000512  -0.001485 -31.936200   4.307630  -6.871110 -26.341400  -0.002594   0.001731 -18.439000  -0.002555  -0.002273 -27.512000   3.763370  -7.182590 -30.492900   0.000960  -0.008988 -20.308300  -0.000246  -0.002525 -27.850600   0.202128  -0.382543 -31.077700  -0.002087   0.000362 -20.691900  -0.009040  -0.000280 -28.322700  -2.484420   4.598340 -42.633700  -0.003977  -0.000395 -28.394100  -0.002126  -0.000316  11.724000   3.224780   6.454870  66.260100   9.992140  -2.776310   3.423490  -7.223200  10.295500 -13.714300 -18.564800  -3.118500 -37.657000  33.326400  72.977500  29.259000   0.003324  -0.001776   9.629550   0.003333   0.000820  26.141700   0.465405   0.948088  21.391800   0.003054   0.010383  14.974200   0.001019   0.001493  25.084500  -1.226710  -2.618640  25.112500  -0.002840   0.007221  16.724900   0.004808   0.002945  24.087600  -1.180940  -2.639580  24.114800  -0.004678   0.011848  16.060400   0.009228   0.002415  26.083900  -2.277660  -4.641340  39.264400   0.003750   0.008168  26.150100   0.005269   0.006180   1.570710   3.276630   1.501620   1.066070   1.924950  12.670100  -6.396530  -3.173660   2.037680  -0.000000   0.000000   0.000000   1.743330   3.157260  -7.741230  -0.563244   2.771890 -11.677300  -6.215890  -0.307284  -1.091210   0.000000   0.000000   0.000000
  0.381018  89.860100   0.661682  -0.872609  -3.157670  -0.887539  -0.672234   3.271650  -0.825499  -1.300310   6.552450  -1.616120   2.736940   0.168914  -0.009066   4.496380   0.340288   6.650630  -4.245530   0.156071   4.749220 -68.902000  19.458700   0.218447  -3.759200  -8.207600 -14.097700  12.664900 -11.304300  10.016700  51.183400  42.858000 -85.745700 -21.882700   0.002627   0.001111  -5.941330   0.000520  -0.001479 -31.938100   4.322440  -6.893610 -26.344600  -0.002584   0.001730 -18.441200  -0.002555  -0.002274 -27.495700   3.773960  -7.207430 -30.409000   0.000981  -0.008956 -20.252400  -0.000191  -0.002485 -27.850400   0.215655  -0.408155 -31.078200  -0.002074   0.000369 -20.693000  -0.009058  -0.000272 -28.314800  -2.472740   4.578620 -42.621000  -0.003988  -0.000402 -28.385200  -0.002127  -0.000324  11.716000   3.224930   6.421930  66.250700  10.055200  -2.728030   3.427080  -7.242500  10.253300 -13.729900 -18.528100  -3.160160 -37.665600  33.366200  73.024500  29.268600   0.003331  -0.001792   9.634290   0.003331   0.000816  26.172700   0.479233   0.974945  21.417400   0.003057   0.010375  14.992100   0.001018   0.001487  25.112000  -1.220730  -2.603320  25.139700  -0.002830   0.007211  16.743000   0.004800   0.002936  24.115800  -1.175240  -2.624150  24.142600  -0.004655   0.011838  16.079000   0.009231   0.002379  26.125100  -2.274370  -4.625860  39.325400   0.003736   0.008147  26.190700   0.005251   0.006179   1.588810   3.330350   1.523900   1.050050   1.926740  12.721700  -6.395670  -3.204790   2.059870   0.000000   0.000000   0.000000   1.756780   3.208580  -7.751410  -0.573013   2.723580 -11.627600  -6.215330  -0.294702  -1.026390   0.000000   0.000000  -0.000000
